<?xml version="1.0" standalone="no"?>
<!DOCTYPE svg PUBLIC "-//W3C//DTD SVG 20010904//EN"
 "http://www.w3.org/TR/2001/REC-SVG-20010904/DTD/svg10.dtd">
<svg version="1.0" xmlns="http://www.w3.org/2000/svg"
 width="640.000000pt" height="640.000000pt" viewBox="0 0 640.000000 640.000000"
 preserveAspectRatio="xMidYMid meet">
<metadata>
Created by potrace 1.11, written by Peter Selinger 2001-2013
</metadata>
<g transform="translate(0.000000,640.000000) scale(0.100000,-0.100000)"
fill="#000000" stroke="none">
<path d="M2757 5859 c-10 -6 -21 -8 -24 -5 -4 3 -12 1 -19 -4 -6 -6 -16 -10
-20 -9 -5 1 -16 0 -24 -4 -18 -7 -123 -41 -130 -42 -3 0 -27 -11 -55 -24 -27
-12 -54 -24 -60 -25 -5 -2 -37 -15 -70 -31 -33 -15 -63 -27 -67 -27 -5 1 -8
-1 -8 -6 0 -4 -15 -14 -32 -21 -43 -19 -191 -167 -257 -256 -68 -93 -66 -89
-69 -105 -2 -8 -7 -17 -11 -20 -7 -5 -35 -69 -36 -80 0 -3 -3 -10 -7 -16 -4
-6 -12 -31 -18 -55 -48 -196 -25 -275 126 -427 103 -103 97 -94 83 -144 -7
-24 -12 -47 -10 -52 1 -4 -3 -14 -10 -22 -6 -8 -9 -21 -5 -29 3 -8 2 -15 -2
-15 -6 0 -21 -35 -33 -80 -2 -8 -7 -17 -10 -20 -6 -5 -37 -118 -43 -155 -2
-11 -5 -22 -6 -25 -2 -3 -4 -9 -5 -15 -1 -5 -7 -30 -15 -55 -7 -25 -12 -57
-12 -72 0 -15 -3 -30 -7 -32 -8 -6 -7 -134 2 -143 4 -3 7 -26 7 -49 0 -24 4
-45 8 -48 13 -8 13 -188 1 -203 -7 -7 -8 -13 -4 -13 11 0 -63 -93 -135 -169
-38 -41 -70 -123 -70 -181 0 -34 48 -70 121 -91 24 -7 46 -13 49 -14 3 -1 22
-5 43 -9 20 -5 37 -10 37 -12 0 -3 -19 -34 -42 -71 -38 -60 -42 -73 -43 -132
-1 -36 2 -73 7 -81 35 -69 68 -153 62 -161 -4 -6 -9 -28 -11 -48 -3 -20 -12
-61 -21 -91 -9 -30 -15 -58 -14 -62 1 -5 -2 -8 -7 -8 -5 0 -13 -15 -16 -32 -4
-18 -10 -37 -13 -43 -3 -5 -7 -16 -8 -25 -4 -30 -13 -61 -47 -162 -20 -57 -39
-116 -43 -133 -10 -40 -11 -44 -14 -50 -1 -3 -3 -8 -4 -12 -15 -55 -31 -103
-41 -123 -8 -14 -21 -54 -30 -90 -9 -36 -18 -72 -21 -80 -2 -8 -10 -42 -18
-75 -7 -33 -15 -64 -17 -70 -6 -19 12 -134 21 -140 6 -4 10 -15 10 -26 0 -11
25 -45 56 -76 51 -50 61 -55 99 -55 23 1 54 6 68 11 15 6 27 8 27 5 0 -4 6 -1
14 6 8 6 23 10 33 9 19 -3 82 9 98 19 6 4 19 8 29 9 11 2 56 16 100 32 45 16
97 35 116 42 44 15 63 23 124 48 26 12 52 18 57 15 5 -3 9 0 9 5 0 6 7 11 16
11 9 0 30 6 47 14 168 77 211 96 213 93 2 -2 -8 -16 -22 -32 -124 -144 -164
-195 -164 -209 0 -26 264 -296 289 -296 6 0 11 -5 11 -11 0 -10 40 -3 50 10 9
11 132 95 208 141 40 25 85 53 100 62 88 56 87 56 160 32 37 -13 83 -26 102
-29 42 -8 50 -10 70 -18 8 -3 33 -11 55 -18 22 -6 45 -15 51 -20 6 -5 24 -11
40 -13 16 -2 36 -6 44 -9 122 -44 143 -45 180 -7 16 17 30 35 30 41 0 10 10
24 43 60 9 10 18 22 18 27 1 6 70 116 105 167 8 11 35 52 60 90 25 39 64 94
85 123 21 28 58 78 82 110 23 31 45 58 50 60 4 2 7 8 7 14 0 6 12 25 28 43 50
59 62 75 62 83 0 4 26 35 58 69 31 34 71 79 87 98 17 20 49 58 72 83 49 54 61
81 42 93 -8 5 -9 9 -4 9 6 0 6 3 -1 8 -6 4 -36 50 -68 102 -32 52 -66 104 -76
115 -9 11 -23 36 -30 55 -23 61 -78 129 -105 130 -7 0 -8 21 -3 63 5 34 8 72
8 84 0 12 5 35 12 50 6 15 12 30 13 33 5 21 49 107 77 151 39 62 81 147 93
192 2 4 4 9 5 12 1 3 3 8 5 13 1 4 4 14 8 22 7 19 31 93 32 100 0 3 3 10 6 15
4 6 10 27 13 49 4 21 12 50 18 65 6 14 12 31 14 38 1 6 23 53 49 105 26 51 56
111 67 132 11 22 21 45 22 50 1 6 4 16 8 21 33 53 41 317 14 460 -3 17 -8 51
-12 78 -4 26 -10 47 -14 47 -4 0 -8 15 -8 33 -1 49 -11 107 -24 131 -7 11 -13
26 -15 31 -1 6 -5 20 -9 33 -5 18 -2 22 15 22 21 0 27 10 14 24 -4 3 -8 16
-10 27 -2 11 -9 30 -15 42 -7 12 -11 25 -10 30 1 4 -2 7 -8 7 -6 0 -9 3 -8 8
3 14 -23 98 -42 133 -24 45 -27 67 -6 50 11 -10 16 -8 24 5 17 30 -115 179
-278 315 -30 24 -127 110 -178 158 -20 18 -55 45 -77 59 -22 15 -43 31 -46 35
-3 5 -10 9 -15 9 -5 0 -19 4 -32 9 -12 5 -68 8 -125 8 -56 0 -118 2 -137 6
-19 3 -73 13 -120 21 -103 18 -111 20 -130 27 -39 15 -156 48 -189 52 -131 19
-397 30 -415 17 -16 -11 -66 -15 -66 -5 0 4 7 17 15 27 8 11 15 24 15 28 0 11
-47 29 -87 33 -18 2 -41 9 -52 14 -25 14 -111 14 -134 0z"/>
</g>
</svg>
