<?xml version="1.0" standalone="no"?>
<!DOCTYPE svg PUBLIC "-//W3C//DTD SVG 20010904//EN"
 "http://www.w3.org/TR/2001/REC-SVG-20010904/DTD/svg10.dtd">
<svg version="1.0" xmlns="http://www.w3.org/2000/svg"
 width="512.000000pt" height="512.000000pt" viewBox="0 0 512.000000 512.000000"
 preserveAspectRatio="xMidYMid meet">

<g transform="translate(0.000000,512.000000) scale(0.100000,-0.100000)"
fill="#000000" stroke="none">
<path d="M122 4559 c-24 -12 -54 -36 -67 -53 -54 -71 -55 -79 -55 -450 l0
-344 28 -53 c34 -66 88 -105 161 -119 74 -14 4668 -14 4742 0 73 14 127 53
161 119 l28 53 0 348 0 348 -28 53 c-17 34 -44 65 -71 84 l-43 30 -2406 3
-2407 2 -43 -21z m4622 -151 c8 -30 8 -666 0 -695 l-6 -23 -2268 0 c-2218 0
-2268 0 -2291 19 l-24 19 0 332 0 332 24 19 c23 19 73 19 2291 19 l2268 0 6
-22z"/>
<path d="M122 3059 c-24 -12 -54 -36 -67 -53 -54 -71 -55 -79 -55 -450 l0
-344 28 -53 c48 -92 127 -129 278 -129 69 0 111 12 130 38 21 27 16 70 -11 97
-22 23 -31 25 -123 25 -83 0 -104 3 -123 19 l-24 19 0 332 0 332 24 19 c23 19
73 19 2291 19 l2268 0 6 -22 c8 -30 8 -666 0 -695 l-6 -23 -2045 0 -2044 0
-24 -25 c-43 -42 -28 -103 29 -125 37 -14 4201 -14 4277 0 73 14 127 53 161
119 l28 53 0 348 0 348 -28 53 c-17 34 -44 65 -71 84 l-43 30 -2406 3 -2407 2
-43 -21z"/>
<path d="M122 1559 c-24 -12 -54 -36 -67 -53 -54 -71 -55 -79 -55 -450 l0
-344 28 -53 c34 -66 88 -105 161 -119 74 -14 4668 -14 4742 0 73 14 127 53
161 119 l28 53 0 348 0 348 -28 53 c-17 34 -44 65 -71 84 l-43 30 -2406 3
-2407 2 -43 -21z m4622 -151 c8 -30 8 -666 0 -695 l-6 -23 -2268 0 c-2218 0
-2268 0 -2291 19 l-24 19 0 332 0 332 24 19 c23 19 73 19 2291 19 l2268 0 6
-22z"/>
</g>
</svg>
